<svg xmlns="http://www.w3.org/2000/svg" width="71.724" height="28.793" viewBox="0 0 71.724 28.793">
  <g id="Arrow" transform="translate(0 1.596)" opacity="0.6">
    <path id="Path_59" data-name="Path 59" d="M1001.83,3446.047c-2.717-1.209-16.661-11.693-21.567,3.2-2.108,11.275,6.911,8.909,6.911,8.909s10.185-1.521-6.911-20.1-18.785,5.341-16.146,11.188,5.52,7.517,8.276,4.037-1.747-11.736-13.024-12.48-15.414,6.526-21.355,6.041" transform="translate(-931.096 -3431.959)" fill="rgba(0,0,0,0)" stroke="#667f94" stroke-linecap="round" stroke-width="1.5"/>
    <path id="Path_60" data-name="Path 60" d="M2.264.13,8.269,6.135a.443.443,0,0,1-.227.749L.531,8.391a.444.444,0,0,1-.522-.523L1.515.357A.444.444,0,0,1,2.264.13Z" transform="translate(6.043 9.061) rotate(46)" fill="#667f94"/>
  </g>
</svg>
